<?xml version="1.0" encoding="UTF-8"?>
<svg height="128px" viewBox="0 0 128 128" width="128px" xmlns="http://www.w3.org/2000/svg">
    <radialGradient id="a" cx="0" cy="0" gradientTransform="matrix(-98.312475 98.312475 -98.312475 -98.312475 113.15625 14.84375)" gradientUnits="userSpaceOnUse" r="1">
        <stop offset="0.0810525" stop-color="#fe2857"/>
        <stop offset="0.720942" stop-color="#007eff"/>
    </radialGradient>
    <path d="m 109.382812 12 h -56.820312 c -1.757812 0 -3.441406 0.695312 -4.679688 1.9375 l -33.945312 33.941406 c -1.242188 1.242188 -1.9375 2.925782 -1.9375 4.679688 v 56.824218 c 0 3.652344 2.964844 6.617188 6.617188 6.617188 h 56.820312 c 1.757812 0 3.441406 -0.699219 4.683594 -1.941406 l 33.941406 -33.980469 c 1.238281 -1.238281 1.933594 -2.921875 1.933594 -4.675781 l 0.003906 -56.785156 c 0 -3.652344 -2.964844 -6.617188 -6.617188 -6.617188 z m 0 0" fill="url(#a)"/>
    <path d="m 96.5 31.5 h -65 v 65 h 65 z m 0 0"/>
    <g fill="#ffffff">
        <path d="m 65.625 83.5 h -26 v 4.875 h 26 z m 0 0"/>
        <path d="m 39.625 59.75 h 4.839844 v -15.875 h -4.839844 v -4.25 h 14.363281 v 4.25 h -4.839843 v 15.875 h 4.839843 v 4.25 h -14.363281 z m 0 0"/>
        <path d="m 56.425781 59.613281 h 3.5 c 0.707031 0 1.335938 -0.152343 1.890625 -0.453125 c 0.550782 -0.300781 0.976563 -0.726562 1.277344 -1.277344 c 0.300781 -0.554687 0.453125 -1.183593 0.453125 -1.890624 v -16.367188 h 4.753906 v 16.695312 c 0 1.464844 -0.339843 2.777344 -1.011719 3.945313 c -0.671874 1.167969 -1.601562 2.082031 -2.785156 2.742187 c -1.183594 0.660157 -2.511718 0.992188 -3.988281 0.992188 h -4.089844 z m 0 0"/>
    </g>
</svg>
